%TF.GenerationSoftware,KiCad,Pcbnew,8.0.8*%
%TF.CreationDate,2025-06-12T22:03:47+05:30*%
%TF.ProjectId,Smart_Tic_Tac_Toe,536d6172-745f-4546-9963-5f5461635f54,rev?*%
%TF.SameCoordinates,Original*%
%TF.FileFunction,Copper,L2,Bot*%
%TF.FilePolarity,Positive*%
%FSLAX46Y46*%
G04 Gerber Fmt 4.6, Leading zero omitted, Abs format (unit mm)*
G04 Created by KiCad (PCBNEW 8.0.8) date 2025-06-12 22:03:47*
%MOMM*%
%LPD*%
G01*
G04 APERTURE LIST*
%TA.AperFunction,ComponentPad*%
%ADD10C,2.000000*%
%TD*%
%TA.AperFunction,ComponentPad*%
%ADD11R,1.700000X1.700000*%
%TD*%
%TA.AperFunction,ComponentPad*%
%ADD12O,1.700000X1.700000*%
%TD*%
%TA.AperFunction,Conductor*%
%ADD13C,0.200000*%
%TD*%
G04 APERTURE END LIST*
D10*
%TO.P,SW1,1,1*%
%TO.N,Net-(J1-Pin_13)*%
X132070000Y-83410000D03*
X138570000Y-83410000D03*
%TO.P,SW1,2,2*%
%TO.N,GND*%
X132070000Y-87910000D03*
X138570000Y-87910000D03*
%TD*%
%TO.P,SW2,1,1*%
%TO.N,Net-(J1-Pin_14)*%
X144070000Y-71410000D03*
X150570000Y-71410000D03*
%TO.P,SW2,2,2*%
%TO.N,GND*%
X144070000Y-75910000D03*
X150570000Y-75910000D03*
%TD*%
D11*
%TO.P,J1,1,Pin_1*%
%TO.N,unconnected-(J1-Pin_1-Pad1)*%
X88930000Y-100400000D03*
D12*
%TO.P,J1,2,Pin_2*%
%TO.N,GND*%
X91470000Y-100400000D03*
%TO.P,J1,3,Pin_3*%
%TO.N,unconnected-(J1-Pin_3-Pad3)*%
X94010000Y-100400000D03*
%TO.P,J1,4,Pin_4*%
%TO.N,unconnected-(J1-Pin_4-Pad4)*%
X96550000Y-100400000D03*
%TO.P,J1,5,Pin_5*%
%TO.N,unconnected-(J1-Pin_5-Pad5)*%
X99090000Y-100400000D03*
%TO.P,J1,6,Pin_6*%
%TO.N,Net-(J1-Pin_6)*%
X101630000Y-100400000D03*
%TO.P,J1,7,Pin_7*%
%TO.N,Net-(J1-Pin_7)*%
X104170000Y-100400000D03*
%TO.P,J1,8,Pin_8*%
%TO.N,Net-(J1-Pin_8)*%
X106710000Y-100400000D03*
%TO.P,J1,9,Pin_9*%
%TO.N,unconnected-(J1-Pin_9-Pad9)*%
X109250000Y-100400000D03*
%TO.P,J1,10,Pin_10*%
%TO.N,unconnected-(J1-Pin_10-Pad10)*%
X111790000Y-100400000D03*
%TO.P,J1,11,Pin_11*%
%TO.N,unconnected-(J1-Pin_11-Pad11)*%
X114330000Y-100400000D03*
%TO.P,J1,12,Pin_12*%
%TO.N,unconnected-(J1-Pin_12-Pad12)*%
X116870000Y-100400000D03*
%TO.P,J1,13,Pin_13*%
%TO.N,Net-(J1-Pin_13)*%
X119410000Y-100400000D03*
%TO.P,J1,14,Pin_14*%
%TO.N,Net-(J1-Pin_14)*%
X121950000Y-100400000D03*
%TO.P,J1,15,Pin_15*%
%TO.N,unconnected-(J1-Pin_15-Pad15)*%
X124490000Y-100400000D03*
%TD*%
D10*
%TO.P,SW5,1,1*%
%TO.N,Net-(J1-Pin_7)*%
X144320000Y-85160000D03*
X150820000Y-85160000D03*
%TO.P,SW5,2,2*%
%TO.N,GND*%
X144320000Y-89660000D03*
X150820000Y-89660000D03*
%TD*%
D11*
%TO.P,J2,1,Pin_1*%
%TO.N,unconnected-(J2-Pin_1-Pad1)*%
X88900000Y-75000000D03*
D12*
%TO.P,J2,2,Pin_2*%
%TO.N,unconnected-(J2-Pin_2-Pad2)*%
X91440000Y-75000000D03*
%TO.P,J2,3,Pin_3*%
%TO.N,unconnected-(J2-Pin_3-Pad3)*%
X93980000Y-75000000D03*
%TO.P,J2,4,Pin_4*%
%TO.N,unconnected-(J2-Pin_4-Pad4)*%
X96520000Y-75000000D03*
%TO.P,J2,5,Pin_5*%
%TO.N,unconnected-(J2-Pin_5-Pad5)*%
X99060000Y-75000000D03*
%TO.P,J2,6,Pin_6*%
%TO.N,unconnected-(J2-Pin_6-Pad6)*%
X101600000Y-75000000D03*
%TO.P,J2,7,Pin_7*%
%TO.N,unconnected-(J2-Pin_7-Pad7)*%
X104140000Y-75000000D03*
%TO.P,J2,8,Pin_8*%
%TO.N,unconnected-(J2-Pin_8-Pad8)*%
X106680000Y-75000000D03*
%TO.P,J2,9,Pin_9*%
%TO.N,unconnected-(J2-Pin_9-Pad9)*%
X109220000Y-75000000D03*
%TO.P,J2,10,Pin_10*%
%TO.N,unconnected-(J2-Pin_10-Pad10)*%
X111760000Y-75000000D03*
%TO.P,J2,11,Pin_11*%
%TO.N,unconnected-(J2-Pin_11-Pad11)*%
X114300000Y-75000000D03*
%TO.P,J2,12,Pin_12*%
%TO.N,unconnected-(J2-Pin_12-Pad12)*%
X116840000Y-75000000D03*
%TO.P,J2,13,Pin_13*%
%TO.N,unconnected-(J2-Pin_13-Pad13)*%
X119380000Y-75000000D03*
%TO.P,J2,14,Pin_14*%
%TO.N,unconnected-(J2-Pin_14-Pad14)*%
X121920000Y-75000000D03*
%TO.P,J2,15,Pin_15*%
%TO.N,unconnected-(J2-Pin_15-Pad15)*%
X124460000Y-75000000D03*
%TD*%
D10*
%TO.P,SW4,1,1*%
%TO.N,Net-(J1-Pin_6)*%
X144320000Y-97660000D03*
X150820000Y-97660000D03*
%TO.P,SW4,2,2*%
%TO.N,GND*%
X144320000Y-102160000D03*
X150820000Y-102160000D03*
%TD*%
%TO.P,SW3,1,1*%
%TO.N,Net-(J1-Pin_8)*%
X157320000Y-83660000D03*
X163820000Y-83660000D03*
%TO.P,SW3,2,2*%
%TO.N,GND*%
X157320000Y-88160000D03*
X163820000Y-88160000D03*
%TD*%
D13*
%TO.N,Net-(J1-Pin_7)*%
X145868527Y-83611473D02*
X145868527Y-71370049D01*
X144320000Y-85160000D02*
X145868527Y-83611473D01*
X144608478Y-70110000D02*
X134460000Y-70110000D01*
X145868527Y-71370049D02*
X144608478Y-70110000D01*
X134460000Y-70110000D02*
X104170000Y-100400000D01*
%TO.N,Net-(J1-Pin_13)*%
X132070000Y-83410000D02*
X119410000Y-96070000D01*
X119410000Y-96070000D02*
X119410000Y-100400000D01*
%TO.N,GND*%
X91470000Y-100400000D02*
X93230000Y-102160000D01*
X93230000Y-102160000D02*
X144320000Y-102160000D01*
%TO.N,Net-(J1-Pin_14)*%
X139401522Y-78740000D02*
X121950000Y-96191522D01*
X121950000Y-96191522D02*
X121950000Y-100400000D01*
X139700000Y-78740000D02*
X139401522Y-78740000D01*
X144070000Y-71410000D02*
X139700000Y-75780000D01*
X139700000Y-75780000D02*
X139700000Y-78740000D01*
%TO.N,Net-(J1-Pin_8)*%
X157320000Y-83660000D02*
X157320000Y-85074213D01*
X125050000Y-96360000D02*
X123100000Y-98310000D01*
X146034213Y-96360000D02*
X125050000Y-96360000D01*
X107910000Y-101600000D02*
X106710000Y-100400000D01*
X123100000Y-100876346D02*
X122376346Y-101600000D01*
X123100000Y-98310000D02*
X123100000Y-100876346D01*
X157320000Y-85074213D02*
X146034213Y-96360000D01*
X122376346Y-101600000D02*
X107910000Y-101600000D01*
%TO.N,Net-(J1-Pin_6)*%
X93583654Y-104140000D02*
X90320000Y-100876346D01*
X90320000Y-99923654D02*
X90993654Y-99250000D01*
X145299898Y-97660000D02*
X145620000Y-97980102D01*
X145620000Y-97980102D02*
X145620000Y-102698478D01*
X90993654Y-99250000D02*
X100480000Y-99250000D01*
X100480000Y-99250000D02*
X101630000Y-100400000D01*
X144178478Y-104140000D02*
X93583654Y-104140000D01*
X144320000Y-97660000D02*
X145299898Y-97660000D01*
X90320000Y-100876346D02*
X90320000Y-99923654D01*
X145620000Y-102698478D02*
X144178478Y-104140000D01*
%TD*%
M02*
