%TF.GenerationSoftware,KiCad,Pcbnew,8.0.8*%
%TF.CreationDate,2025-06-12T22:03:47+05:30*%
%TF.ProjectId,Smart_Tic_Tac_Toe,536d6172-745f-4546-9963-5f5461635f54,rev?*%
%TF.SameCoordinates,Original*%
%TF.FileFunction,Copper,L1,Top*%
%TF.FilePolarity,Positive*%
%FSLAX46Y46*%
G04 Gerber Fmt 4.6, Leading zero omitted, Abs format (unit mm)*
G04 Created by KiCad (PCBNEW 8.0.8) date 2025-06-12 22:03:47*
%MOMM*%
%LPD*%
G01*
G04 APERTURE LIST*
%ADD10C,0.300000*%
%TA.AperFunction,NonConductor*%
%ADD11C,0.300000*%
%TD*%
%TA.AperFunction,NonConductor*%
%ADD12C,0.200000*%
%TD*%
%TA.AperFunction,ComponentPad*%
%ADD13C,2.000000*%
%TD*%
%TA.AperFunction,ComponentPad*%
%ADD14R,1.700000X1.700000*%
%TD*%
%TA.AperFunction,ComponentPad*%
%ADD15O,1.700000X1.700000*%
%TD*%
%TA.AperFunction,Conductor*%
%ADD16C,0.200000*%
%TD*%
G04 APERTURE END LIST*
D10*
D11*
X91385629Y-80768507D02*
X91457142Y-80839851D01*
X91457142Y-80839851D02*
X91528739Y-80982624D01*
X91528739Y-80982624D02*
X91529161Y-81339766D01*
X91529161Y-81339766D02*
X91457901Y-81482708D01*
X91457901Y-81482708D02*
X91386557Y-81554221D01*
X91386557Y-81554221D02*
X91243784Y-81625818D01*
X91243784Y-81625818D02*
X91100927Y-81625987D01*
X91100927Y-81625987D02*
X90886557Y-81554811D01*
X90886557Y-81554811D02*
X90028403Y-80698681D01*
X90028403Y-80698681D02*
X90029499Y-81627252D01*
X91531101Y-82982622D02*
X91530258Y-82268337D01*
X91530258Y-82268337D02*
X90815888Y-82197752D01*
X90815888Y-82197752D02*
X90887401Y-82269096D01*
X90887401Y-82269096D02*
X90958998Y-82411869D01*
X90958998Y-82411869D02*
X90959420Y-82769011D01*
X90959420Y-82769011D02*
X90888160Y-82911953D01*
X90888160Y-82911953D02*
X90816816Y-82983466D01*
X90816816Y-82983466D02*
X90674043Y-83055063D01*
X90674043Y-83055063D02*
X90316901Y-83055485D01*
X90316901Y-83055485D02*
X90173959Y-82984225D01*
X90173959Y-82984225D02*
X90102447Y-82912881D01*
X90102447Y-82912881D02*
X90030849Y-82770108D01*
X90030849Y-82770108D02*
X90030427Y-82412965D01*
X90030427Y-82412965D02*
X90101687Y-82270024D01*
X90101687Y-82270024D02*
X90173031Y-82198511D01*
X90174803Y-83698510D02*
X90103459Y-83770022D01*
X90103459Y-83770022D02*
X90031946Y-83698678D01*
X90031946Y-83698678D02*
X90103290Y-83627165D01*
X90103290Y-83627165D02*
X90174803Y-83698510D01*
X90174803Y-83698510D02*
X90031946Y-83698678D01*
X91033548Y-85054639D02*
X90033549Y-85055821D01*
X91604555Y-84696822D02*
X90532705Y-84340945D01*
X90532705Y-84340945D02*
X90533802Y-85269516D01*
X91534813Y-86125476D02*
X91534982Y-86268333D01*
X91534982Y-86268333D02*
X91463722Y-86411275D01*
X91463722Y-86411275D02*
X91392378Y-86482788D01*
X91392378Y-86482788D02*
X91249605Y-86554385D01*
X91249605Y-86554385D02*
X90963976Y-86626151D01*
X90963976Y-86626151D02*
X90606833Y-86626573D01*
X90606833Y-86626573D02*
X90321035Y-86555482D01*
X90321035Y-86555482D02*
X90178093Y-86484222D01*
X90178093Y-86484222D02*
X90106580Y-86412878D01*
X90106580Y-86412878D02*
X90034983Y-86270105D01*
X90034983Y-86270105D02*
X90034814Y-86127248D01*
X90034814Y-86127248D02*
X90106074Y-85984307D01*
X90106074Y-85984307D02*
X90177418Y-85912794D01*
X90177418Y-85912794D02*
X90320191Y-85841196D01*
X90320191Y-85841196D02*
X90605821Y-85769430D01*
X90605821Y-85769430D02*
X90962963Y-85769009D01*
X90962963Y-85769009D02*
X91248762Y-85840100D01*
X91248762Y-85840100D02*
X91391703Y-85911359D01*
X91391703Y-85911359D02*
X91463216Y-85982704D01*
X91463216Y-85982704D02*
X91534813Y-86125476D01*
X91536501Y-87554046D02*
X91536669Y-87696903D01*
X91536669Y-87696903D02*
X91465410Y-87839845D01*
X91465410Y-87839845D02*
X91394065Y-87911358D01*
X91394065Y-87911358D02*
X91251293Y-87982955D01*
X91251293Y-87982955D02*
X90965663Y-88054721D01*
X90965663Y-88054721D02*
X90608520Y-88055143D01*
X90608520Y-88055143D02*
X90322722Y-87984052D01*
X90322722Y-87984052D02*
X90179781Y-87912792D01*
X90179781Y-87912792D02*
X90108268Y-87841448D01*
X90108268Y-87841448D02*
X90036670Y-87698675D01*
X90036670Y-87698675D02*
X90036502Y-87555818D01*
X90036502Y-87555818D02*
X90107761Y-87412877D01*
X90107761Y-87412877D02*
X90179106Y-87341364D01*
X90179106Y-87341364D02*
X90321878Y-87269766D01*
X90321878Y-87269766D02*
X90607508Y-87198000D01*
X90607508Y-87198000D02*
X90964651Y-87197579D01*
X90964651Y-87197579D02*
X91250449Y-87268670D01*
X91250449Y-87268670D02*
X91393390Y-87339929D01*
X91393390Y-87339929D02*
X91464903Y-87411274D01*
X91464903Y-87411274D02*
X91536501Y-87554046D01*
X91538188Y-88982616D02*
X91538357Y-89125473D01*
X91538357Y-89125473D02*
X91467097Y-89268415D01*
X91467097Y-89268415D02*
X91395753Y-89339928D01*
X91395753Y-89339928D02*
X91252980Y-89411525D01*
X91252980Y-89411525D02*
X90967350Y-89483291D01*
X90967350Y-89483291D02*
X90610208Y-89483713D01*
X90610208Y-89483713D02*
X90324409Y-89412622D01*
X90324409Y-89412622D02*
X90181468Y-89341362D01*
X90181468Y-89341362D02*
X90109955Y-89270018D01*
X90109955Y-89270018D02*
X90038358Y-89127245D01*
X90038358Y-89127245D02*
X90038189Y-88984388D01*
X90038189Y-88984388D02*
X90109449Y-88841447D01*
X90109449Y-88841447D02*
X90180793Y-88769934D01*
X90180793Y-88769934D02*
X90323566Y-88698336D01*
X90323566Y-88698336D02*
X90609195Y-88626570D01*
X90609195Y-88626570D02*
X90966338Y-88626149D01*
X90966338Y-88626149D02*
X91252136Y-88697240D01*
X91252136Y-88697240D02*
X91395078Y-88768499D01*
X91395078Y-88768499D02*
X91466591Y-88839844D01*
X91466591Y-88839844D02*
X91538188Y-88982616D01*
X90040889Y-91270100D02*
X91040888Y-91268919D01*
X90898031Y-91269088D02*
X90969544Y-91340432D01*
X90969544Y-91340432D02*
X91041141Y-91483205D01*
X91041141Y-91483205D02*
X91041394Y-91697490D01*
X91041394Y-91697490D02*
X90970134Y-91840431D01*
X90970134Y-91840431D02*
X90827362Y-91912029D01*
X90827362Y-91912029D02*
X90041648Y-91912957D01*
X90827362Y-91912029D02*
X90970303Y-91983289D01*
X90970303Y-91983289D02*
X91041900Y-92126061D01*
X91041900Y-92126061D02*
X91042153Y-92340347D01*
X91042153Y-92340347D02*
X90970894Y-92483288D01*
X90970894Y-92483288D02*
X90828121Y-92554885D01*
X90828121Y-92554885D02*
X90042407Y-92555813D01*
X90043251Y-93270099D02*
X91043250Y-93268918D01*
X90900393Y-93269086D02*
X90971906Y-93340430D01*
X90971906Y-93340430D02*
X91043503Y-93483203D01*
X91043503Y-93483203D02*
X91043756Y-93697489D01*
X91043756Y-93697489D02*
X90972497Y-93840430D01*
X90972497Y-93840430D02*
X90829724Y-93912027D01*
X90829724Y-93912027D02*
X90044010Y-93912955D01*
X90829724Y-93912027D02*
X90972665Y-93983287D01*
X90972665Y-93983287D02*
X91044262Y-94126060D01*
X91044262Y-94126060D02*
X91044516Y-94340345D01*
X91044516Y-94340345D02*
X90973256Y-94483287D01*
X90973256Y-94483287D02*
X90830483Y-94554884D01*
X90830483Y-94554884D02*
X90044769Y-94555812D01*
D12*
X89400000Y-74999409D02*
X89486420Y-74999307D01*
X89430000Y-100399409D02*
X89516420Y-100399307D01*
X88900000Y-75000000D02*
X88930000Y-100400000D01*
X88900000Y-75000000D02*
X88930000Y-100400000D01*
X88900000Y-75000000D02*
X89487751Y-76125810D01*
X88900000Y-75000000D02*
X88314910Y-76127196D01*
X88930000Y-100400000D02*
X88342249Y-99274190D01*
X88930000Y-100400000D02*
X89515090Y-99272804D01*
D13*
%TO.P,SW1,1,1*%
%TO.N,Net-(J1-Pin_13)*%
X132070000Y-83410000D03*
X138570000Y-83410000D03*
%TO.P,SW1,2,2*%
%TO.N,GND*%
X132070000Y-87910000D03*
X138570000Y-87910000D03*
%TD*%
%TO.P,SW2,1,1*%
%TO.N,Net-(J1-Pin_14)*%
X144070000Y-71410000D03*
X150570000Y-71410000D03*
%TO.P,SW2,2,2*%
%TO.N,GND*%
X144070000Y-75910000D03*
X150570000Y-75910000D03*
%TD*%
D14*
%TO.P,J1,1,Pin_1*%
%TO.N,unconnected-(J1-Pin_1-Pad1)*%
X88930000Y-100400000D03*
D15*
%TO.P,J1,2,Pin_2*%
%TO.N,GND*%
X91470000Y-100400000D03*
%TO.P,J1,3,Pin_3*%
%TO.N,unconnected-(J1-Pin_3-Pad3)*%
X94010000Y-100400000D03*
%TO.P,J1,4,Pin_4*%
%TO.N,unconnected-(J1-Pin_4-Pad4)*%
X96550000Y-100400000D03*
%TO.P,J1,5,Pin_5*%
%TO.N,unconnected-(J1-Pin_5-Pad5)*%
X99090000Y-100400000D03*
%TO.P,J1,6,Pin_6*%
%TO.N,Net-(J1-Pin_6)*%
X101630000Y-100400000D03*
%TO.P,J1,7,Pin_7*%
%TO.N,Net-(J1-Pin_7)*%
X104170000Y-100400000D03*
%TO.P,J1,8,Pin_8*%
%TO.N,Net-(J1-Pin_8)*%
X106710000Y-100400000D03*
%TO.P,J1,9,Pin_9*%
%TO.N,unconnected-(J1-Pin_9-Pad9)*%
X109250000Y-100400000D03*
%TO.P,J1,10,Pin_10*%
%TO.N,unconnected-(J1-Pin_10-Pad10)*%
X111790000Y-100400000D03*
%TO.P,J1,11,Pin_11*%
%TO.N,unconnected-(J1-Pin_11-Pad11)*%
X114330000Y-100400000D03*
%TO.P,J1,12,Pin_12*%
%TO.N,unconnected-(J1-Pin_12-Pad12)*%
X116870000Y-100400000D03*
%TO.P,J1,13,Pin_13*%
%TO.N,Net-(J1-Pin_13)*%
X119410000Y-100400000D03*
%TO.P,J1,14,Pin_14*%
%TO.N,Net-(J1-Pin_14)*%
X121950000Y-100400000D03*
%TO.P,J1,15,Pin_15*%
%TO.N,unconnected-(J1-Pin_15-Pad15)*%
X124490000Y-100400000D03*
%TD*%
D13*
%TO.P,SW5,1,1*%
%TO.N,Net-(J1-Pin_7)*%
X144320000Y-85160000D03*
X150820000Y-85160000D03*
%TO.P,SW5,2,2*%
%TO.N,GND*%
X144320000Y-89660000D03*
X150820000Y-89660000D03*
%TD*%
D14*
%TO.P,J2,1,Pin_1*%
%TO.N,unconnected-(J2-Pin_1-Pad1)*%
X88900000Y-75000000D03*
D15*
%TO.P,J2,2,Pin_2*%
%TO.N,unconnected-(J2-Pin_2-Pad2)*%
X91440000Y-75000000D03*
%TO.P,J2,3,Pin_3*%
%TO.N,unconnected-(J2-Pin_3-Pad3)*%
X93980000Y-75000000D03*
%TO.P,J2,4,Pin_4*%
%TO.N,unconnected-(J2-Pin_4-Pad4)*%
X96520000Y-75000000D03*
%TO.P,J2,5,Pin_5*%
%TO.N,unconnected-(J2-Pin_5-Pad5)*%
X99060000Y-75000000D03*
%TO.P,J2,6,Pin_6*%
%TO.N,unconnected-(J2-Pin_6-Pad6)*%
X101600000Y-75000000D03*
%TO.P,J2,7,Pin_7*%
%TO.N,unconnected-(J2-Pin_7-Pad7)*%
X104140000Y-75000000D03*
%TO.P,J2,8,Pin_8*%
%TO.N,unconnected-(J2-Pin_8-Pad8)*%
X106680000Y-75000000D03*
%TO.P,J2,9,Pin_9*%
%TO.N,unconnected-(J2-Pin_9-Pad9)*%
X109220000Y-75000000D03*
%TO.P,J2,10,Pin_10*%
%TO.N,unconnected-(J2-Pin_10-Pad10)*%
X111760000Y-75000000D03*
%TO.P,J2,11,Pin_11*%
%TO.N,unconnected-(J2-Pin_11-Pad11)*%
X114300000Y-75000000D03*
%TO.P,J2,12,Pin_12*%
%TO.N,unconnected-(J2-Pin_12-Pad12)*%
X116840000Y-75000000D03*
%TO.P,J2,13,Pin_13*%
%TO.N,unconnected-(J2-Pin_13-Pad13)*%
X119380000Y-75000000D03*
%TO.P,J2,14,Pin_14*%
%TO.N,unconnected-(J2-Pin_14-Pad14)*%
X121920000Y-75000000D03*
%TO.P,J2,15,Pin_15*%
%TO.N,unconnected-(J2-Pin_15-Pad15)*%
X124460000Y-75000000D03*
%TD*%
D13*
%TO.P,SW4,1,1*%
%TO.N,Net-(J1-Pin_6)*%
X144320000Y-97660000D03*
X150820000Y-97660000D03*
%TO.P,SW4,2,2*%
%TO.N,GND*%
X144320000Y-102160000D03*
X150820000Y-102160000D03*
%TD*%
%TO.P,SW3,1,1*%
%TO.N,Net-(J1-Pin_8)*%
X157320000Y-83660000D03*
X163820000Y-83660000D03*
%TO.P,SW3,2,2*%
%TO.N,GND*%
X157320000Y-88160000D03*
X163820000Y-88160000D03*
%TD*%
D16*
%TO.N,Net-(J1-Pin_7)*%
X144320000Y-85160000D02*
X150820000Y-85160000D01*
%TO.N,Net-(J1-Pin_13)*%
X138570000Y-83410000D02*
X132070000Y-83410000D01*
%TO.N,GND*%
X142570000Y-87910000D02*
X138570000Y-87910000D01*
X144320000Y-102160000D02*
X144320000Y-102060000D01*
X152120000Y-88360000D02*
X150820000Y-89660000D01*
X150570000Y-75910000D02*
X152120000Y-77460000D01*
X150820000Y-89660000D02*
X155820000Y-89660000D01*
X150820000Y-102160000D02*
X152120000Y-100860000D01*
X157320000Y-88160000D02*
X163820000Y-88160000D01*
X138570000Y-87910000D02*
X132070000Y-87910000D01*
X150570000Y-75910000D02*
X144070000Y-75910000D01*
X150820000Y-102160000D02*
X144320000Y-102160000D01*
X132070000Y-87910000D02*
X132070000Y-88890000D01*
X152120000Y-100860000D02*
X152120000Y-90960000D01*
X144320000Y-89660000D02*
X142570000Y-87910000D01*
X152120000Y-77460000D02*
X152120000Y-88360000D01*
X132070000Y-88890000D02*
X132080000Y-88900000D01*
X144320000Y-89660000D02*
X150820000Y-89660000D01*
X152120000Y-90960000D02*
X150820000Y-89660000D01*
X91440000Y-88900000D02*
X91470000Y-88930000D01*
X155820000Y-89660000D02*
X157320000Y-88160000D01*
%TO.N,Net-(J1-Pin_14)*%
X144070000Y-71410000D02*
X150570000Y-71410000D01*
%TO.N,Net-(J1-Pin_8)*%
X157320000Y-83660000D02*
X163820000Y-83660000D01*
%TO.N,Net-(J1-Pin_6)*%
X150820000Y-97660000D02*
X144320000Y-97660000D01*
%TD*%
M02*
